<svg enable-background="new 0 0 289.75 264.5" viewBox="0 0 289.75 264.5" xmlns="http://www.w3.org/2000/svg"><circle cx="143.6" cy="118.8" fill="#80cfd5" r="8.82" stroke="#80cfd5" stroke-miterlimit="10" stroke-width="3"/><path d="m89.53 154.85 48.76-111.01c.13-.42.3-.83.53-1.21l.03-.07c.59-.97 1.47-1.77 2.58-2.25l.01-.01c2.88-1.22 6.22.11 7.44 2.95l40.43 91.94v-87.53c0-2.63 1.67-5.1 4.22-5.74 3.76-.95 7.14 1.89 7.14 5.5v109.67c0 5.69-6.19 9.09-11.08 6.19-1.63-.97-7.93-17.09-8.07-17.4l-38.02-86.6-43.92 100c-1.22 2.78-4.46 4.03-7.24 2.81-2.77-1.22-4.03-4.46-2.81-7.24z" fill="#80cfd5" stroke="#80cfd5" stroke-miterlimit="10" stroke-width="3"/><path d="m206.84 190.57c0 4.31-27.74 7.8-61.97 7.8-34.22 0-61.97-3.49-61.97-7.8s27.74-7.8 61.97-7.8c34.23-.01 61.97 3.49 61.97 7.8z" fill="#e6e6e6"/><g stroke-miterlimit="10"><path d="m276.49 61.67s-7.03-6.31-7.03-6.31c-52.49-45.48-130.44-56.84-194.59-31.61-23.22 9.04-44.61 22.77-62.5 39.92-1.05.97-.99 2.92.09 3.89 1.05.99 2.71 1.01 3.88-.21 14.03-13.3 30.01-24.52 47.45-32.95 58.07-28.79 130.95-21.7 182.84 16.86 7.82 5.45 15.08 11.62 21.99 18.17 2.01 2.17 5.74 2.35 7.87.19 2.17-2.07 2.22-5.92 0-7.95z" fill="#80cfd5" stroke="#80cfd5" stroke-width="3"/><path d="m97.28 218.54h-12.99v-.96h26.94v.96h-12.99v35.36h-.96z" fill="#666" stroke="#666" stroke-width="2"/><path d="m165.84 253.9-12.49-18.29h-.05l-12.85 18.29h-1.19l13.49-19.1-12.03-17.22h1.19l11.39 16.36h.05l12.03-16.36h1.23l-12.72 17.17 13.17 19.15z" fill="#666" stroke="#666" stroke-width="2"/><path d="m205.45 217.58v36.32h-.96v-36.32z" fill="#666" stroke="#666" stroke-width="2"/><path d="m135.8 253.9h1.05l-14.13-36.32h-.87l-14.27 36.32h1s13.31-33.84 13.67-35.05h.05c.51 1.77 13.5 35.05 13.5 35.05z" fill="#666" stroke="#666" stroke-width="2"/><path d="m123.86 238.7c0 .91-.74 1.65-1.65 1.65s-1.65-.74-1.65-1.65.74-1.65 1.65-1.65c.92 0 1.65.74 1.65 1.65z" fill="#666" stroke="#666" stroke-width="2"/><path d="m197.47 253.9h1.05l-14.13-36.32h-.87l-14.27 36.32h1s13.31-33.84 13.67-35.05h.05c.51 1.77 13.5 35.05 13.5 35.05z" fill="#666" stroke="#666" stroke-width="2"/><path d="m185.54 238.7c0 .91-.74 1.65-1.65 1.65s-1.65-.74-1.65-1.65.74-1.65 1.65-1.65 1.65.74 1.65 1.65z" fill="#666" stroke="#666" stroke-width="2"/></g></svg>