<svg enable-background="new 0 0 351.17 95.47" viewBox="0 0 351.17 95.47" xmlns="http://www.w3.org/2000/svg"><path d="m73.72 54.29c0 2.23 1.81 4.05 4.05 4.05 2.23 0 4.05-1.81 4.05-4.05s-1.81-4.05-4.05-4.05c-2.24.01-4.05 1.82-4.05 4.05z" fill="#80cfd5" stroke="#80cfd5" stroke-miterlimit="10" stroke-width="3"/><path d="m52.98 70.83 22.36-50.9c.06-.19.14-.38.24-.56l.01-.03c.27-.44.67-.81 1.18-1.03 1.32-.56 2.85.05 3.41 1.35l18.54 42.15v-40.13c0-1.2.77-2.34 1.93-2.63 1.72-.43 3.27.87 3.27 2.52v50.28c0 2.61-2.84 4.17-5.08 2.84-.75-.44-3.64-7.83-3.7-7.98l-17.42-39.71-20.14 45.86c-.56 1.27-2.05 1.85-3.32 1.29-1.27-.57-1.84-2.05-1.28-3.32z" fill="#80cfd5" stroke="#80cfd5" stroke-miterlimit="10" stroke-width="3"/><path d="m106.76 87.2c0 1.98-12.72 3.58-28.41 3.58s-28.41-1.6-28.41-3.58 12.72-3.58 28.41-3.58 28.41 1.6 28.41 3.58z" fill="#e6e6e6"/><g stroke-miterlimit="10"><path d="m138.69 28.1s-3.22-2.89-3.22-2.89c-24.07-20.85-59.8-26.06-89.22-14.49-10.64 4.14-20.45 10.44-28.65 18.3-.48.45-.45 1.34.04 1.78.48.45 1.24.46 1.78-.1 6.43-6.1 13.76-11.24 21.75-15.11 26.63-13.19 60.04-9.94 83.83 7.74 3.58 2.5 6.91 5.33 10.08 8.33.92.99 2.63 1.08 3.61.09.99-.95 1.02-2.71 0-3.65z" fill="#80cfd5" stroke="#80cfd5" stroke-width="3"/><path d="m177.84 25.21h-18.74v-1.39h38.87v1.39h-18.74v51.02h-1.38v-51.02z" fill="#666" stroke="#666" stroke-width="2"/><path d="m276.75 76.23-18.02-26.38h-.07l-18.54 26.38h-1.71l19.46-27.55-17.36-24.85h1.71l16.44 23.61h.07l17.36-23.61h1.78l-18.35 24.77 19.01 27.63z" fill="#666" stroke="#666" stroke-width="2"/><path d="m333.91 23.82v52.4h-1.38v-52.4z" fill="#666" stroke="#666" stroke-width="2"/><path d="m322.4 76.23h1.51l-20.39-52.4h-1.25l-20.58 52.4h1.45s19.2-48.82 19.73-50.58h.07c.71 2.56 19.46 50.58 19.46 50.58z" fill="#666" stroke="#666" stroke-width="2"/><path d="m233.41 76.23h1.51l-20.39-52.4h-1.25l-20.58 52.4h1.45s19.2-48.82 19.73-50.58h.07c.71 2.56 19.46 50.58 19.46 50.58z" fill="#666" stroke="#666" stroke-width="2"/><circle cx="213.81" cy="54.29" fill="#666" r="2.38" stroke="#666" stroke-width="2"/><path d="m322.4 76.23h1.51l-20.39-52.4h-1.25l-20.58 52.4h1.45s19.2-48.82 19.73-50.58h.07c.71 2.56 19.46 50.58 19.46 50.58z" fill="#666" stroke="#666" stroke-width="2"/><circle cx="302.8" cy="54.29" fill="#666" r="2.38" stroke="#666" stroke-width="2"/></g></svg>