<?xml version="1.0" encoding="utf-8"?>
<!-- Generator: Adobe Illustrator 26.0.2, SVG Export Plug-In . SVG Version: 6.00 Build 0)  -->
<svg version="1.1" id="레이어_1" xmlns="http://www.w3.org/2000/svg" xmlns:xlink="http://www.w3.org/1999/xlink" x="0px"
	 y="0px" viewBox="0 0 351.17 95.47" style="enable-background:new 0 0 351.17 95.47;" xml:space="preserve">
<style type="text/css">
	.st0{fill:#80CFD5;stroke:#80CFD5;stroke-width:3;stroke-miterlimit:10;}
	.st1{fill:#E6E6E6;}
	.st2{fill:#666666;stroke:#666666;stroke-width:2;stroke-miterlimit:10;}
	.st3{fill:#80CFD5;stroke:#80CFD5;stroke-width:1.5;stroke-miterlimit:10;}
	.st4{fill:#666666;stroke:#666666;stroke-width:1.5;stroke-miterlimit:10;}
</style>
<g>
	<path class="st0" d="M73.72,54.29c0,2.23,1.81,4.05,4.05,4.05c2.23,0,4.05-1.81,4.05-4.05s-1.81-4.05-4.05-4.05
		C75.53,50.25,73.72,52.06,73.72,54.29z"/>
	<path class="st0" d="M52.98,70.83l22.36-50.9c0.06-0.19,0.14-0.38,0.24-0.56l0.01-0.03l0,0c0.27-0.44,0.67-0.81,1.18-1.03l0,0
		c1.32-0.56,2.85,0.05,3.41,1.35l18.54,42.15V21.68c0-1.2,0.77-2.34,1.93-2.63c1.72-0.43,3.27,0.87,3.27,2.52v50.28
		c0,2.61-2.84,4.17-5.08,2.84c-0.75-0.44-3.64-7.83-3.7-7.98L77.72,27L57.58,72.86c-0.56,1.27-2.05,1.85-3.32,1.29
		C52.99,73.58,52.42,72.1,52.98,70.83z"/>
</g>
<path class="st1" d="M106.76,87.2c0,1.98-12.72,3.58-28.41,3.58c-15.69,0-28.41-1.6-28.41-3.58c0-1.98,12.72-3.58,28.41-3.58
	C94.04,83.62,106.76,85.22,106.76,87.2z"/>
<path class="st0" d="M138.69,28.1c0,0-3.22-2.89-3.22-2.89C111.4,4.36,75.67-0.85,46.25,10.72C35.61,14.86,25.8,21.16,17.6,29.02
	c-0.48,0.45-0.45,1.34,0.04,1.78c0.48,0.45,1.24,0.46,1.78-0.1c6.43-6.1,13.76-11.24,21.75-15.11C67.8,2.4,101.21,5.65,125,23.33
	c3.58,2.5,6.91,5.33,10.08,8.33c0.92,0.99,2.63,1.08,3.61,0.09C139.68,30.8,139.71,29.04,138.69,28.1z"/>
<g>
	<path class="st2" d="M177.84,25.21h-18.74v-1.39h38.87v1.39h-18.74v51.02h-1.38V25.21z"/>
	<path class="st2" d="M276.75,76.23l-18.02-26.38h-0.07l-18.54,26.38h-1.71l19.46-27.55l-17.36-24.85h1.71l16.44,23.61h0.07
		l17.36-23.61h1.78L259.52,48.6l19.01,27.63H276.75z"/>
	<path class="st2" d="M333.91,23.82v52.4h-1.38v-52.4H333.91z"/>
	<g>
		<path class="st2" d="M322.4,76.23h1.51l-20.39-52.4h-1.25l-20.58,52.4h1.45c0,0,19.2-48.82,19.73-50.58h0.07
			C303.65,28.21,322.4,76.23,322.4,76.23z"/>
	</g>
	<g>
		<g>
			<path class="st2" d="M233.41,76.23h1.51l-20.39-52.4h-1.25l-20.58,52.4h1.45c0,0,19.2-48.82,19.73-50.58h0.07
				C214.66,28.21,233.41,76.23,233.41,76.23z"/>
		</g>
		<circle class="st2" cx="213.81" cy="54.29" r="2.38"/>
	</g>
	<g>
		<g>
			<path class="st2" d="M322.4,76.23h1.51l-20.39-52.4h-1.25l-20.58,52.4h1.45c0,0,19.2-48.82,19.73-50.58h0.07
				C303.65,28.21,322.4,76.23,322.4,76.23z"/>
		</g>
		<circle class="st2" cx="302.8" cy="54.29" r="2.38"/>
	</g>
</g>
</svg>
